<?xml version="1.0" standalone="no"?><svg xmlns="http://www.w3.org/2000/svg" viewBox="0 0 1440 320"><path fill="#F0F0F0" fill-opacity="1" d="M0,160L34.3,160C68.6,160,137,160,206,170.7C274.3,181,343,203,411,208C480,213,549,203,617,192C685.7,181,754,171,823,181.3C891.4,192,960,224,1029,234.7C1097.1,245,1166,235,1234,224C1302.9,213,1371,203,1406,197.3L1440,192L1440,0L1405.7,0C1371.4,0,1303,0,1234,0C1165.7,0,1097,0,1029,0C960,0,891,0,823,0C754.3,0,686,0,617,0C548.6,0,480,0,411,0C342.9,0,274,0,206,0C137.1,0,69,0,34,0L0,0Z"></path></svg>